<svg width="100" height="100" viewBox="0 0 100 100" fill="none" xmlns="http://www.w3.org/2000/svg">
<path d="M91.2109 15.7441H8.78906C3.94277 15.7441 0 19.6869 0 24.5332V75.4672C0 80.3135 3.94277 84.2562 8.78906 84.2562H91.2109C96.0572 84.2562 100 80.3135 100 75.4672V24.5332C100 19.6869 96.0572 15.7441 91.2109 15.7441ZM90.0639 21.6035L88.8908 22.5803L53.4871 52.0609C51.4664 53.7434 48.5332 53.7434 46.5129 52.0609L11.1092 22.5803L9.93613 21.6035H90.0639ZM5.85938 25.8336L34.7055 49.8537L5.85938 69.0516V25.8336ZM91.2109 78.3969H8.78906C7.37344 78.3969 6.18945 77.3875 5.91816 76.051L39.4035 53.7656L42.7637 56.5637C44.8602 58.3094 47.4303 59.1822 50.0002 59.1822C52.5701 59.1822 55.14 58.3094 57.2367 56.5637L60.5969 53.7656L94.082 76.0508C93.8105 77.3877 92.6266 78.3969 91.2109 78.3969ZM94.1406 69.0516L65.2945 49.8539L94.1406 25.8336V69.0516Z" fill="#5C5C5C"/>
</svg>
