<svg width="1762" height="1287" viewBox="0 0 1762 1287" fill="none" xmlns="http://www.w3.org/2000/svg">
<path fill-rule="evenodd" clip-rule="evenodd" d="M397.918 142.142C295.638 142.142 211.977 233.825 211.977 345.886C211.977 457.927 295.638 549.611 397.918 549.611C418.456 549.611 435.242 568.023 435.242 590.499C435.242 613.001 418.456 631.387 397.918 631.387H300.621C250.733 631.387 209.899 676.102 209.899 730.79C209.899 785.446 250.733 830.161 300.621 830.161C343.773 830.161 379.077 868.846 379.077 916.123C379.077 1002.39 443.491 1072.97 522.21 1072.97H565.019H1195.43H1362.53C1464.79 1072.97 1548.47 981.284 1548.47 869.217C1548.47 757.178 1464.79 665.495 1362.53 665.495H1231.39C1210.88 665.495 1194.08 647.086 1194.08 624.607C1194.08 602.102 1210.88 583.714 1231.39 583.714H1264.71C1314.6 583.714 1355.42 538.998 1355.42 484.316C1355.42 429.724 1314.7 385.029 1264.86 384.942C1264.83 384.942 1255.29 384.942 1255.25 384.942C1212.09 384.942 1176.79 346.265 1176.79 298.986C1176.79 212.718 1112.37 142.142 1033.63 142.142C893.931 142.142 537.622 142.142 397.918 142.142Z" fill="url(#paint0_linear)"/>
<path fill-rule="evenodd" clip-rule="evenodd" d="M432.559 253.189H519.628V282.098H432.559V253.189Z" fill="#F7F8FC"/>
<path fill-rule="evenodd" clip-rule="evenodd" d="M303.243 287.889H390.332V316.801H303.243V287.889Z" fill="#F7F8FC"/>
<path fill-rule="evenodd" clip-rule="evenodd" d="M394.469 287.889H481.54V316.801H394.469V287.889Z" fill="#F7F8FC"/>
<path fill-rule="evenodd" clip-rule="evenodd" d="M341.332 322.569H428.401V351.48H341.332V322.569Z" fill="#F7F8FC"/>
<path fill-rule="evenodd" clip-rule="evenodd" d="M303.243 357.269H390.332V386.183H303.243V357.269Z" fill="#F7F8FC"/>
<path fill-rule="evenodd" clip-rule="evenodd" d="M394.469 357.269H481.54V386.183H394.469V357.269Z" fill="#F7F8FC"/>
<path fill-rule="evenodd" clip-rule="evenodd" d="M489.023 887.672H576.115V916.565H489.023V887.672Z" fill="#F7F8FC"/>
<path fill-rule="evenodd" clip-rule="evenodd" d="M580.25 887.672H667.34V916.565H580.25V887.672Z" fill="#F7F8FC"/>
<path fill-rule="evenodd" clip-rule="evenodd" d="M450.957 922.357H538.026V951.263H450.957V922.357Z" fill="#F7F8FC"/>
<path fill-rule="evenodd" clip-rule="evenodd" d="M542.182 922.357H629.25V951.263H542.182V922.357Z" fill="#F7F8FC"/>
<path fill-rule="evenodd" clip-rule="evenodd" d="M580.25 957.054H667.34V985.968H580.25V957.054Z" fill="#F7F8FC"/>
<path fill-rule="evenodd" clip-rule="evenodd" d="M450.957 991.734H538.026V1020.65H450.957V991.734Z" fill="#F7F8FC"/>
<path fill-rule="evenodd" clip-rule="evenodd" d="M542.182 991.734H629.25V1020.65H542.182V991.734Z" fill="#F7F8FC"/>
<path fill-rule="evenodd" clip-rule="evenodd" d="M636.979 229.912H1020.28C1030.06 229.912 1038.05 238.687 1038.05 249.385V848.401H1051.69C1058.25 848.401 1063.61 854.3 1063.61 861.487V914.972C1063.61 922.156 1058.25 928.038 1051.69 928.038H605.567C599.012 928.038 593.646 922.156 593.646 914.972V861.487C593.646 854.3 599.012 848.401 605.567 848.401H619.204V249.385C619.204 238.687 627.213 229.912 636.979 229.912Z" fill="#C1B6E1"/>
<path fill-rule="evenodd" clip-rule="evenodd" d="M627.213 225.403H1010.52C1020.3 225.403 1028.29 234.157 1028.29 244.855V853.15C1028.29 863.848 1020.3 872.602 1010.52 872.602H627.213C617.431 872.602 609.441 863.848 609.441 853.15V244.855C609.441 234.157 617.431 225.403 627.213 225.403Z" fill="#F7F8FC"/>
<path fill-rule="evenodd" clip-rule="evenodd" d="M641.923 563.868V817.698H995.81V563.868H641.923Z" fill="#5D4698"/>
<path fill-rule="evenodd" clip-rule="evenodd" d="M641.923 260.968V570.453H995.81V260.968H641.923Z" fill="#EAE6F5"/>
<path fill-rule="evenodd" clip-rule="evenodd" d="M960.91 396.592V299.205H836.313V396.592H960.91ZM836.313 532.216H960.91V434.829H836.313V532.216ZM676.822 434.829V532.216H801.414V434.829H676.822ZM676.822 299.205V396.592H801.414V299.205H676.822Z" fill="#6A54A5"/>
<path fill-rule="evenodd" clip-rule="evenodd" d="M889.998 434.828L836.313 493.644V434.828H889.998ZM734.195 515.992H709.099L783.176 434.828H801.414V442.344L734.195 515.992ZM801.414 515.992H757.98L801.414 468.404V515.992ZM892.155 315.428H917.255L843.173 396.592H836.313V376.61L892.155 315.428ZM946.786 372.61L924.9 396.592H866.958L941.037 315.428H946.786V372.61Z" fill="#C1B6E1"/>
<path fill-rule="evenodd" clip-rule="evenodd" d="M595.803 843.891H1041.93C1048.48 843.891 1053.85 849.768 1053.85 856.952V910.442C1053.85 917.626 1048.48 923.528 1041.93 923.528H595.803C589.246 923.528 583.88 917.626 583.88 910.442V856.952C583.88 849.768 589.246 843.891 595.803 843.891Z" fill="#E3DEF2"/>
<path fill-rule="evenodd" clip-rule="evenodd" d="M831.048 595.938L826.43 596.468L823.585 596.36L820.742 596.224L816.182 595.297L790.116 566.077L730.201 594.988C732.036 698.162 722.192 746.571 710.631 817.698H892.66C892.902 787.06 904.181 741.685 906.54 717.065L916.79 603.032L859.13 569.04L831.048 595.938Z" fill="#B91919"/>
<path fill-rule="evenodd" clip-rule="evenodd" d="M842.065 817.698H874.927C882.048 811.243 888.988 805.541 893.426 803.284C896.031 774.131 904.522 738.059 906.54 717.065L906.824 713.832C906.096 705.966 905.287 697.48 904.397 688.329C901.094 654.491 908.273 631.946 915.397 618.527L916.79 603.032L859.13 569.04L850.052 577.747L846.925 594.059C846.925 594.059 878.094 620.406 881.869 634.816C885.621 649.227 872.467 748.406 863.086 791.214C860.786 801.696 852.796 810.447 842.065 817.698Z" fill="#B91919"/>
<path fill-rule="evenodd" clip-rule="evenodd" d="M730.26 599.142C731.211 662.535 727.68 705.06 722.072 745.464C722.072 745.464 752.654 620.138 749.266 616.712C746.621 614.038 743.315 611.034 730.26 599.142Z" fill="#B91919"/>
<path fill-rule="evenodd" clip-rule="evenodd" d="M856.527 561.722C835.569 550.694 814.93 549.809 793.243 558.983L796.553 569.943L852.453 572.355L856.527 561.722Z" fill="#B1AAC3"/>
<path fill-rule="evenodd" clip-rule="evenodd" d="M831.048 595.938L826.43 596.468L820.742 596.224L816.182 595.297L798.67 575.668L795.928 576.466L789.794 584.623C789.794 584.623 801.858 618.859 802.586 620.031C803.329 621.202 804.682 621.84 806.78 619.279C808.857 616.692 815.435 608.293 815.435 608.293C815.435 608.293 817.331 606.283 818.099 608.692C818.865 611.076 828.467 605.001 828.467 605.001L829.054 607.3C829.054 607.3 830.546 605.464 831.875 607.984C833.189 610.504 839.746 621.4 840.209 621.886C840.671 622.393 842.729 624.054 844.325 620.805C845.758 617.819 862.943 579.714 865.929 573.063L859.13 569.04L831.048 595.938Z" fill="#19B9AF"/>
<path fill-rule="evenodd" clip-rule="evenodd" d="M831.049 595.938L826.43 596.468L820.742 596.224L816.182 595.297L814.446 593.354L810.351 600.424C810.351 600.424 818.785 603.827 818.482 612.028L802.02 817.698H811.098L827.56 612.427C828.206 604.249 836.497 601.552 836.497 601.552L832.926 594.146L831.049 595.938Z" fill="white"/>
<path fill-rule="evenodd" clip-rule="evenodd" d="M826.653 511.174C839.847 511.748 850.236 524.059 849.712 538.512L848.459 573.305C847.936 587.76 836.718 599.122 823.505 598.569C810.311 597.994 799.941 585.683 800.446 571.227L801.698 536.437C802.222 521.984 813.457 510.597 826.653 511.174Z" fill="#E85355"/>
<path fill-rule="evenodd" clip-rule="evenodd" d="M818.118 592.952L820.883 592.579C820.883 592.579 821.407 593.24 821.447 594.327C821.487 595.405 821.428 598.612 821.428 598.612C820.399 598.965 814.972 599.94 815.172 599.099C815.214 598.898 818.118 592.952 818.118 592.952Z" fill="#2C2757"/>
<path fill-rule="evenodd" clip-rule="evenodd" d="M829.294 593.438L826.571 592.823C826.571 592.823 826.005 593.438 825.885 594.525C825.765 595.606 825.582 598.79 825.582 598.79C826.571 599.693 831.939 600.669 831.796 599.827C831.756 599.629 829.294 593.438 829.294 593.438Z" fill="#2C2757"/>
<path fill-rule="evenodd" clip-rule="evenodd" d="M856.527 561.722C856.833 562.03 859.999 568.705 861.653 571.933C861.653 571.933 863.166 574.586 861.834 578.875C860.505 583.184 843.78 618.172 843.78 618.172C843.78 618.172 842.61 620.03 840.916 618.105C839.201 616.185 826.571 592.823 826.571 592.823L853.142 564.44C854.392 562.831 856.248 561.413 856.527 561.722Z" fill="white"/>
<path fill-rule="evenodd" clip-rule="evenodd" d="M793.243 558.983C793.022 559.091 789.27 565.657 787.393 568.728C787.393 568.728 785.699 571.25 786.728 575.647C787.757 580.046 801.898 616.383 801.898 616.383C801.898 616.383 802.929 618.306 804.762 616.537C806.599 614.766 820.883 592.579 820.883 592.579L796.431 561.987C794.798 559.711 793.445 558.872 793.243 558.983Z" fill="white"/>
<path fill-rule="evenodd" clip-rule="evenodd" d="M779.185 478.35C778.821 478.35 778.456 478.35 778.095 478.37H778.073C771.415 478.836 765.688 484.273 764.558 491.791C763.226 500.54 768.631 508.787 776.622 510.244C784.609 511.683 792.134 505.758 793.466 497.006C794.213 491.922 792.719 487.014 789.754 483.5C789.491 488.252 788.058 493.933 782.511 493.644L783.883 484.517C784.447 480.826 781.504 478.615 779.185 478.35Z" fill="#E85355"/>
<path fill-rule="evenodd" clip-rule="evenodd" d="M883.803 494.993C884.148 495.104 884.491 495.238 884.832 495.369H884.855C891.128 497.889 895.202 504.875 894.335 512.455C893.325 521.23 886.002 527.464 877.974 526.357C869.944 525.253 864.256 517.227 865.264 508.432C865.849 503.325 868.572 499.083 872.326 496.628C871.337 501.271 871.236 507.173 876.621 508.633L877.692 499.436C878.115 495.722 881.505 494.53 883.803 494.993Z" fill="#E85355"/>
<path fill-rule="evenodd" clip-rule="evenodd" d="M842.003 407.333C814.709 403.001 789.129 423.91 785.175 453.817L778.618 503.281C774.643 533.189 793.748 561.214 821.043 565.546C848.34 569.899 873.898 548.97 877.871 519.065L884.428 469.619C888.384 439.714 869.3 411.688 842.003 407.333Z" fill="#F8A477"/>
<path fill-rule="evenodd" clip-rule="evenodd" d="M814.044 563.868C816.302 564.597 818.644 565.171 821.043 565.546C848.34 569.899 873.898 548.97 877.871 519.065L884.428 469.619C885.621 460.669 884.731 451.894 882.189 443.868C862.137 437.328 845.051 432.067 845.051 432.067C845.051 432.067 781.825 432 788.584 451.14L790.379 454.324C790.379 454.324 795.827 448.888 805.49 451.451C815.172 454.038 847.289 463.189 857.901 467.498C868.511 471.83 871.337 480.473 869.742 492.208C868.128 503.922 869.258 508.563 871.901 510.509C871.901 510.509 867.827 563.868 814.044 563.868Z" fill="#F48469"/>
<path fill-rule="evenodd" clip-rule="evenodd" d="M813.497 523.925C812.188 531.642 816.847 539.068 823.888 540.502C830.95 541.938 837.707 536.836 839.018 529.119H838.999C839.22 527.794 838.414 526.491 837.202 526.249L816.142 521.958C814.93 521.717 813.741 522.602 813.518 523.925H813.497Z" fill="white"/>
<path fill-rule="evenodd" clip-rule="evenodd" d="M816.403 535.773C818.28 538.162 820.862 539.887 823.888 540.502C826.369 541.011 828.81 540.703 830.987 539.773C830.503 536.702 828.004 533.961 824.574 533.122C821.306 532.324 818.118 533.454 816.403 535.773Z" fill="white"/>
<path fill-rule="evenodd" clip-rule="evenodd" d="M837.486 526.334L817.674 522.311C816.948 524.633 817.554 527.263 818.945 528.103C820.618 529.099 835.024 531.616 836.255 530.579C836.84 530.072 837.244 528.172 837.486 526.334Z" fill="white"/>
<path fill-rule="evenodd" clip-rule="evenodd" d="M856.024 518.337C852.435 517.693 849.045 520.368 848.441 524.301C847.853 528.236 850.297 531.951 853.887 532.612C857.479 533.253 860.866 530.579 861.451 526.646C862.057 522.71 859.616 518.998 856.024 518.337Z" fill="#E85355"/>
<path fill-rule="evenodd" clip-rule="evenodd" d="M800.042 508.234C796.452 507.591 793.062 510.267 792.458 514.203C791.873 518.136 794.293 521.848 797.904 522.512C801.496 523.153 804.884 520.479 805.469 516.546C806.075 512.61 803.634 508.898 800.042 508.234Z" fill="#E85355"/>
<path fill-rule="evenodd" clip-rule="evenodd" d="M800.669 482.463C799.72 482.792 798.712 482.242 798.409 481.225C798.106 480.208 798.611 479.101 799.539 478.769C804.562 476.867 810.835 477.554 815.031 481.289C815.778 481.977 815.9 483.215 815.273 484.031C814.669 484.872 813.539 485.004 812.771 484.316C809.383 481.289 804.682 481.091 800.669 482.463ZM864.033 492.538C860.523 489.974 855.944 488.692 851.929 490.553C851.023 490.97 849.972 490.484 849.589 489.49C849.207 488.517 849.651 487.369 850.557 486.949C855.522 484.671 861.733 485.953 866.051 489.336C866.859 489.953 867.059 491.168 866.495 492.056C865.929 492.937 864.82 493.158 864.033 492.538ZM860.14 510.067C860.321 508.72 860.018 507.372 859.273 506.288C858.526 505.204 857.436 504.499 856.229 504.298C854.995 504.1 853.767 504.455 852.778 505.251C851.788 506.067 851.142 507.261 850.961 508.61C850.821 509.67 849.914 510.422 848.943 510.267C847.957 510.113 847.29 509.117 847.43 508.033C847.734 505.67 848.885 503.547 850.64 502.11C852.395 500.695 854.572 500.077 856.729 500.429C858.888 500.764 860.826 502.023 862.137 503.946C863.448 505.871 863.993 508.257 863.671 510.62C863.528 511.704 862.621 512.435 861.653 512.278C860.685 512.123 859.999 511.13 860.14 510.067ZM809.019 501.935C809.181 500.587 808.88 499.238 808.133 498.154C807.405 497.07 806.317 496.365 805.086 496.164C803.857 495.969 802.624 496.319 801.637 497.114C800.648 497.933 800.002 499.127 799.819 500.476C799.68 501.536 798.771 502.265 797.803 502.11C796.835 501.958 796.149 500.962 796.29 499.899C796.614 497.536 797.763 495.413 799.497 493.977C801.252 492.563 803.43 491.943 805.589 492.298C807.769 492.628 809.686 493.889 810.997 495.812C812.308 497.737 812.853 500.121 812.55 502.486C812.409 503.547 811.502 504.298 810.513 504.146C809.545 503.989 808.88 502.996 809.019 501.935Z" fill="#2C2757"/>
<path fill-rule="evenodd" clip-rule="evenodd" d="M779.828 494.131C779.828 494.131 787.675 492.01 789.531 478.108C791.368 464.182 790.903 467.608 791.873 460.36C792.841 453.107 799.114 441.13 812.55 443.274C825.986 445.415 836.739 447.119 836.739 447.119C836.739 447.119 847.492 448.821 860.927 450.965C874.342 453.107 877.267 466.548 876.299 473.796C875.352 481.047 875.794 477.621 873.959 491.544C872.103 505.449 879.083 509.935 879.083 509.935C880.556 498.906 884.186 495.063 884.186 495.063C884.186 495.063 886.143 480.296 887.86 467.387C889.57 454.502 888.567 436.643 874.687 422.275C860.805 407.93 842.285 405.192 842.285 405.192C842.285 405.192 823.848 402.051 806.801 411.488C789.773 420.903 784.165 437.724 782.45 450.633C780.735 463.518 778.778 478.283 778.778 478.283C778.778 478.283 781.28 483.101 779.828 494.131Z" fill="#2C2757"/>
<path fill-rule="evenodd" clip-rule="evenodd" d="M812.55 443.274C812.55 443.274 835.125 470.283 869.138 454.435C869.138 454.435 883.685 445.042 888.203 452.224C888.203 452.224 898.35 423.158 875.533 415.645C875.533 415.645 880.777 412.769 880.474 409.035C880.192 405.277 872.648 394.095 849.127 399.709C849.127 399.709 849.914 390.445 842.368 387.771C834.843 385.096 809.686 394.448 803.695 413.369C803.695 413.369 798.813 427.271 812.55 443.274Z" fill="#3D3172"/>
<path fill-rule="evenodd" clip-rule="evenodd" d="M890.2 433.946C890.04 432.594 889.777 431.251 889.411 429.923C882.835 433.704 868.734 438.875 846.827 432.62C827.459 427.114 825.885 405.763 827.581 390.026C820.641 392.857 813.074 397.851 808.072 404.79C808.112 412.504 811.723 423.709 827.661 435.513C850.236 452.203 878.782 440.069 890.2 433.946Z" fill="#48456D"/>
<path fill-rule="evenodd" clip-rule="evenodd" d="M598.145 368.587L598.225 372.808C598.225 372.808 600.121 373.539 601.514 376.965C602.926 380.389 603.572 382.911 603.572 382.911L623.703 374.906L623.786 373.184L622.19 367.923C622.19 367.923 621.746 366.994 622.212 366.355L612.004 361.426L598.145 368.587Z" fill="#F8A477"/>
<path fill-rule="evenodd" clip-rule="evenodd" d="M786.324 567.912C786.324 567.912 689.995 512.744 674.724 493.997C659.43 475.279 652.309 449.042 629.008 374.069C629.008 374.069 628.162 370.576 623.219 370.95C618.258 371.305 604.378 376.674 602.482 379.241C600.565 381.804 599.517 384.414 600.201 387.948C600.887 391.485 628.365 508.234 636.153 525.693C643.957 543.155 714.465 614.988 729.132 631.745C743.799 648.496 786.324 567.912 786.324 567.912Z" fill="#B91919"/>
<path fill-rule="evenodd" clip-rule="evenodd" d="M619.165 371.748C613.014 373.403 603.995 377.207 602.482 379.241C600.565 381.804 599.517 384.414 600.201 387.948C600.887 391.485 628.365 508.234 636.153 525.693C643.957 543.155 714.465 614.988 729.132 631.745C733.711 636.983 741.015 632.695 748.902 624.339C749.548 619.94 749.731 617.179 749.266 616.713C745.876 613.287 741.377 609.287 716.584 586.656C691.789 564.02 653.277 525.119 646.903 510.731C640.508 496.319 620.779 420.175 614.402 397.343C608.252 375.372 618.378 371.969 619.165 371.748Z" fill="#B91919"/>
<path fill-rule="evenodd" clip-rule="evenodd" d="M627.455 343.454C628.848 335.189 633.002 329.4 634.719 327.454C636.958 324.867 626.205 317.704 622.01 330.126C622.01 330.126 618.218 334.813 616.037 333.444C613.878 332.072 610.43 295.735 610.047 291.776C609.683 287.799 605.468 287.511 604.338 288.641C603.227 289.768 603.833 295.516 604.155 302.829C604.479 310.17 604.758 318.435 604.176 319.163C603.61 319.894 602.078 319.894 600.485 315.959C598.871 312.002 590.78 289.9 588.985 288.816C587.19 287.712 583.88 289.745 584.183 293.457C584.505 297.171 593.444 319.143 593.766 322.347C594.088 325.573 591.184 325.418 589.873 323.673C588.56 321.925 575.812 299.603 574.158 298.522C572.504 297.436 569.194 299.627 570.425 303.382C571.654 307.143 583.053 329.065 582.973 330.924C582.912 332.759 580.692 334.172 576.98 331.297C573.249 328.427 566.168 321.508 564.777 321.439C563.403 321.374 561.611 326.018 564.916 329.709C568.226 333.4 576.134 342.86 577.142 344.427C582.468 352.674 585.212 361.778 590.195 367.593C591.99 369.691 594.33 371.284 596.954 372.345C603.189 374.865 610.993 374.445 616.987 370.908C627.375 364.741 625.519 354.839 627.455 343.454Z" fill="#F8A477"/>
<path fill-rule="evenodd" clip-rule="evenodd" d="M788.119 837.922L781.743 843.891H728.587C728.587 843.891 730.645 836.682 734.134 834.429C734.134 834.429 735.527 833.701 737.282 833.701C737.282 833.701 738.915 831.333 741.398 830.21C743.9 829.08 756.286 825.786 762.76 824.55C769.259 823.312 775.531 825.786 778.64 825.786C781.743 825.786 786.526 825.057 786.526 825.057L788.119 837.922Z" fill="#F8A477"/>
<path fill-rule="evenodd" clip-rule="evenodd" d="M916.79 603.032C916.79 603.032 926.572 610.589 931.255 633.423C935.953 656.28 947.796 772.342 950.035 792.501C952.293 812.682 951.548 843.891 910.982 843.891C870.409 843.891 818.945 843.891 802.786 843.891C786.627 843.891 781.743 843.891 781.743 843.891C781.743 843.891 781.743 828.664 781.743 823.178C781.743 817.698 784.931 815.863 788.22 815.863C791.509 815.863 890.224 804.123 894.917 802.692C899.597 801.253 901.86 798.378 902.043 792.19C902.245 786.02 886.084 714.612 882.694 687.866C879.325 661.122 893.585 602.26 916.79 603.032Z" fill="#B91919"/>
<path fill-rule="evenodd" clip-rule="evenodd" d="M950.742 802.424C951.128 821.523 945.313 843.891 910.982 843.891C870.409 843.891 818.945 843.891 802.786 843.891C786.627 843.891 781.743 843.891 781.743 843.891V827.621C784.912 831.956 791.267 836.903 803.714 836.903C825.885 836.903 889.194 836.903 905.529 836.903C921.103 836.903 950.176 824.55 950.742 802.424Z" fill="#B91919"/>
<path fill-rule="evenodd" clip-rule="evenodd" d="M882.694 687.866C884.992 705.946 893.104 744.445 898.066 769.4C900.445 781.361 902.097 790.203 902.043 792.19C901.883 797.871 899.964 800.767 896.01 802.313C905.793 800.545 909.105 795.528 910.775 788.741C912.23 782.975 910.94 758.707 906.824 713.832C906.096 705.966 905.287 697.459 904.397 688.329C901.094 654.491 908.273 631.946 915.397 618.527C917.574 614.417 919.755 611.145 921.608 608.692C918.907 604.669 916.79 603.032 916.79 603.032C893.585 602.26 879.325 661.122 882.694 687.866Z" fill="#B91919"/>
<path fill-rule="evenodd" clip-rule="evenodd" d="M819.248 514.844C819.248 514.844 823.664 509.801 825.079 508.455C826.491 507.13 826.773 508.653 826.613 510.666C826.451 512.677 826.914 516.545 825.925 517.449C824.938 518.378 820.056 517.449 819.027 516.985C817.996 516.545 819.248 514.844 819.248 514.844Z" fill="#FBC4A8"/>
<path d="M505.445 632.272C506.011 631.634 506.939 631.634 507.524 632.272C508.088 632.895 508.088 633.912 507.524 634.55L502.844 639.657C502.278 640.278 501.35 640.278 500.786 639.657C500.201 639.014 500.201 638 500.786 637.382L505.445 632.272ZM510.792 643.215C511.617 643.215 512.265 643.946 512.265 644.831C512.265 645.714 511.617 646.442 510.792 646.442H504.195C503.389 646.442 502.741 645.714 502.741 644.831C502.741 643.946 503.389 643.215 504.195 643.215H510.792ZM507.524 655.13C508.088 655.752 508.088 656.767 507.524 657.387C506.939 658.025 506.011 658.025 505.445 657.387L500.786 652.278C500.201 651.66 500.201 650.643 500.786 650C501.35 649.382 502.278 649.382 502.844 650L507.524 655.13ZM497.518 660.985C497.518 661.871 496.87 662.604 496.045 662.604C495.237 662.604 494.591 661.871 494.591 660.985V653.76C494.591 652.872 495.237 652.141 496.045 652.141C496.87 652.141 497.518 652.872 497.518 653.76V660.985ZM486.664 657.387C486.079 658.025 485.151 658.025 484.588 657.387C484.021 656.767 484.021 655.752 484.588 655.13L489.246 650C489.831 649.382 490.759 649.382 491.323 650C491.908 650.643 491.908 651.66 491.323 652.278L486.664 657.387ZM481.299 646.442C480.49 646.442 479.844 645.714 479.844 644.831C479.844 643.946 480.49 643.215 481.299 643.215H487.893C488.72 643.215 489.366 643.946 489.366 644.831C489.366 645.714 488.72 646.442 487.893 646.442H481.299ZM484.588 634.55C484.021 633.912 484.021 632.895 484.588 632.272C485.151 631.634 486.079 631.634 486.664 632.272L491.323 637.382C491.908 638 491.908 639.014 491.323 639.657C490.759 640.278 489.831 640.278 489.246 639.657L484.588 634.55ZM494.591 628.671C494.591 627.789 495.237 627.06 496.045 627.06C496.87 627.06 497.518 627.789 497.518 628.671V635.902C497.518 636.782 496.87 637.511 496.045 637.511C495.237 637.511 494.591 636.782 494.591 635.902V628.671Z" fill="#7E6ABC"/>
<path fill-rule="evenodd" clip-rule="evenodd" d="M207.902 907.15H216.194C217.708 907.15 218.959 908.517 218.959 910.177V919.286C218.959 920.939 217.708 922.311 216.194 922.311H207.902C206.37 922.311 205.139 920.939 205.139 919.286V910.177C205.139 908.517 206.37 907.15 207.902 907.15Z" fill="#E2D6EE"/>
<path fill-rule="evenodd" clip-rule="evenodd" d="M236.247 907.15H244.559C246.072 907.15 247.321 908.517 247.321 910.177V919.286C247.321 920.939 246.072 922.311 244.559 922.311H236.247C234.733 922.311 233.483 920.939 233.483 919.286V910.177C233.483 908.517 234.733 907.15 236.247 907.15Z" fill="#E2D6EE"/>
<path fill-rule="evenodd" clip-rule="evenodd" d="M264.591 907.15H272.901C274.416 907.15 275.666 908.517 275.666 910.177V919.286C275.666 920.939 274.416 922.311 272.901 922.311H264.591C263.078 922.311 261.826 920.939 261.826 919.286V910.177C261.826 908.517 263.078 907.15 264.591 907.15Z" fill="#E2D6EE"/>
<path fill-rule="evenodd" clip-rule="evenodd" d="M292.955 907.15H301.248C302.78 907.15 304.011 908.517 304.011 910.177V919.286C304.011 920.939 302.78 922.311 301.248 922.311H292.955C291.423 922.311 290.192 920.939 290.192 919.286V910.177C290.192 908.517 291.423 907.15 292.955 907.15Z" fill="#E2D6EE"/>
<path d="M399.854 207.392C400.421 206.77 401.37 206.77 401.933 207.392C402.5 208.008 402.5 209.024 401.933 209.668L397.275 214.769C396.687 215.392 395.759 215.392 395.196 214.769C394.611 214.154 394.611 213.138 395.196 212.494L399.854 207.392ZM405.223 218.352C406.028 218.352 406.674 219.06 406.674 219.943C406.674 220.829 406.028 221.557 405.223 221.557H398.626C397.799 221.557 397.153 220.829 397.153 219.943C397.153 219.06 397.799 218.352 398.626 218.352H405.223ZM401.933 230.244C402.5 230.862 402.5 231.881 401.933 232.52C401.37 233.137 400.421 233.137 399.854 232.52L395.196 227.392C394.611 226.775 394.611 225.758 395.196 225.114C395.759 224.499 396.687 224.499 397.275 225.114L401.933 230.244ZM391.928 236.103C391.928 236.986 391.282 237.714 390.476 237.714C389.646 237.714 389.003 236.986 389.003 236.103V228.872C389.003 227.99 389.646 227.282 390.476 227.282C391.282 227.282 391.928 227.99 391.928 228.872V236.103ZM381.074 232.52C380.51 233.137 379.582 233.137 378.997 232.52C378.433 231.881 378.433 230.862 378.997 230.244L383.677 225.114C384.241 224.499 385.169 224.499 385.735 225.114C386.32 225.758 386.32 226.775 385.735 227.392L381.074 232.52ZM375.729 221.557C374.902 221.557 374.256 220.829 374.256 219.943C374.256 219.06 374.902 218.352 375.729 218.352H382.326C383.132 218.352 383.778 219.06 383.778 219.943C383.778 220.829 383.132 221.557 382.326 221.557H375.729ZM378.997 209.668C378.433 209.024 378.433 208.008 378.997 207.392C379.582 206.77 380.51 206.77 381.074 207.392L385.735 212.494C386.32 213.138 386.32 214.154 385.735 214.769C385.169 215.392 384.241 215.392 383.677 214.769L378.997 209.668ZM389.003 203.786C389.003 202.901 389.646 202.195 390.476 202.195C391.282 202.195 391.928 202.901 391.928 203.786V211.014C391.928 211.899 391.282 212.628 390.476 212.628C389.646 212.628 389.003 211.899 389.003 211.014V203.786Z" fill="#7E6ABC"/>
<path fill-rule="evenodd" clip-rule="evenodd" d="M457.352 514.466H465.661C467.174 514.466 468.427 515.835 468.427 517.495V526.599C468.427 528.26 467.174 529.632 465.661 529.632H457.352C455.839 529.632 454.587 528.26 454.587 526.599V517.495C454.587 515.835 455.839 514.466 457.352 514.466Z" fill="#F5F1F9"/>
<path fill-rule="evenodd" clip-rule="evenodd" d="M485.715 514.466H494.006C495.54 514.466 496.771 515.835 496.771 517.495V526.599C496.771 528.26 495.54 529.632 494.006 529.632H485.715C484.181 529.632 482.953 528.26 482.953 526.599V517.495C482.953 515.835 484.181 514.466 485.715 514.466Z" fill="#F5F1F9"/>
<path fill-rule="evenodd" clip-rule="evenodd" d="M514.06 514.466H522.372C523.885 514.466 525.135 515.835 525.135 517.495V526.599C525.135 528.26 523.885 529.632 522.372 529.632H514.06C512.547 529.632 511.295 528.26 511.295 526.599V517.495C511.295 515.835 512.547 514.466 514.06 514.466Z" fill="#F5F1F9"/>
<path fill-rule="evenodd" clip-rule="evenodd" d="M542.423 514.466H550.717C552.23 514.466 553.477 515.835 553.477 517.495V526.599C553.477 528.26 552.23 529.632 550.717 529.632H542.423C540.889 529.632 539.661 528.26 539.661 526.599V517.495C539.661 515.835 540.889 514.466 542.423 514.466Z" fill="#F5F1F9"/>
<path fill-rule="evenodd" clip-rule="evenodd" d="M867.181 1000.2H875.493C877.006 1000.2 878.256 1001.55 878.256 1003.23V1012.31C878.256 1013.99 877.006 1015.34 875.493 1015.34H867.181C865.668 1015.34 864.416 1013.99 864.416 1012.31V1003.23C864.416 1001.55 865.668 1000.2 867.181 1000.2Z" fill="#F5F1F9"/>
<path fill-rule="evenodd" clip-rule="evenodd" d="M895.545 1000.2H903.838C905.37 1000.2 906.598 1001.55 906.598 1003.23V1012.31C906.598 1013.99 905.37 1015.34 903.838 1015.34H895.545C894.013 1015.34 892.784 1013.99 892.784 1012.31V1003.23C892.784 1001.55 894.013 1000.2 895.545 1000.2Z" fill="#F5F1F9"/>
<path fill-rule="evenodd" clip-rule="evenodd" d="M923.889 1000.2H932.204C933.714 1000.2 934.966 1001.55 934.966 1003.23V1012.31C934.966 1013.99 933.714 1015.34 932.204 1015.34H923.889C922.374 1015.34 921.122 1013.99 921.122 1012.31V1003.23C921.122 1001.55 922.374 1000.2 923.889 1000.2Z" fill="#F5F1F9"/>
<path fill-rule="evenodd" clip-rule="evenodd" d="M952.251 1000.2H960.546C962.08 1000.2 963.309 1001.55 963.309 1003.23V1012.31C963.309 1013.99 962.08 1015.34 960.546 1015.34H952.251C950.724 1015.34 949.488 1013.99 949.488 1012.31V1003.23C949.488 1001.55 950.724 1000.2 952.251 1000.2Z" fill="#F5F1F9"/>
<path fill-rule="evenodd" clip-rule="evenodd" d="M914.748 175.454H923.062C924.573 175.454 925.825 176.798 925.825 178.479V187.562C925.825 189.243 924.573 190.592 923.062 190.592H914.748C913.24 190.592 911.985 189.243 911.985 187.562V178.479C911.985 176.798 913.24 175.454 914.748 175.454Z" fill="#F5F1F9"/>
<path fill-rule="evenodd" clip-rule="evenodd" d="M943.114 175.454H951.403C952.92 175.454 954.17 176.798 954.17 178.479V187.562C954.17 189.243 952.92 190.592 951.403 190.592H943.114C941.582 190.592 940.354 189.243 940.354 187.562V178.479C940.354 176.798 941.582 175.454 943.114 175.454Z" fill="#F5F1F9"/>
<path fill-rule="evenodd" clip-rule="evenodd" d="M971.463 175.454H979.75C981.284 175.454 982.536 176.798 982.536 178.479V187.562C982.536 189.243 981.284 190.592 979.75 190.592H971.463C969.948 190.592 968.696 189.243 968.696 187.562V178.479C968.696 176.798 969.948 175.454 971.463 175.454Z" fill="#F5F1F9"/>
<path fill-rule="evenodd" clip-rule="evenodd" d="M999.801 175.454H1008.12C1009.63 175.454 1010.88 176.798 1010.88 178.479V187.562C1010.88 189.243 1009.63 190.592 1008.12 190.592H999.801C998.293 190.592 997.041 189.243 997.041 187.562V178.479C997.041 176.798 998.293 175.454 999.801 175.454Z" fill="#F5F1F9"/>
<path fill-rule="evenodd" clip-rule="evenodd" d="M1312.8 735.873H1321.09C1322.61 735.873 1323.85 737.219 1323.85 738.9V747.984C1323.85 749.642 1322.61 751.016 1321.09 751.016H1312.8C1311.27 751.016 1310.04 749.642 1310.04 747.984V738.9C1310.04 737.219 1311.27 735.873 1312.8 735.873Z" fill="#F5F1F9"/>
<path fill-rule="evenodd" clip-rule="evenodd" d="M1341.14 735.873H1349.45C1350.97 735.873 1352.22 737.219 1352.22 738.9V747.984C1352.22 749.642 1350.97 751.016 1349.45 751.016H1341.14C1339.63 751.016 1338.38 749.642 1338.38 747.984V738.9C1338.38 737.219 1339.63 735.873 1341.14 735.873Z" fill="#F5F1F9"/>
<path fill-rule="evenodd" clip-rule="evenodd" d="M1369.49 735.873H1377.8C1379.31 735.873 1380.56 737.219 1380.56 738.9V747.984C1380.56 749.642 1379.31 751.016 1377.8 751.016H1369.49C1367.97 751.016 1366.72 749.642 1366.72 747.984V738.9C1366.72 737.219 1367.97 735.873 1369.49 735.873Z" fill="#F5F1F9"/>
<path fill-rule="evenodd" clip-rule="evenodd" d="M1397.85 735.873H1406.14C1407.67 735.873 1408.91 737.219 1408.91 738.9V747.984C1408.91 749.642 1407.67 751.016 1406.14 751.016H1397.85C1396.34 751.016 1395.09 749.642 1395.09 747.984V738.9C1395.09 737.219 1396.34 735.873 1397.85 735.873Z" fill="#F5F1F9"/>
<path fill-rule="evenodd" clip-rule="evenodd" d="M345.932 1049.4C345.89 1031.1 347.727 1010.04 352.386 986.007C352.426 985.837 352.468 985.636 352.508 985.461C352.731 984.486 353.415 982.63 355.191 983.163C357.571 983.865 377.061 995.868 395.275 1016.18C413.492 1036.49 413.191 1005.95 397.376 993.922C381.579 981.901 365.42 976.838 360.578 972.238C355.715 967.644 356.584 962.385 356.584 962.385C360.357 939.109 363.179 915.258 365.157 891.765L365.176 891.739C365.176 891.739 366.085 886.617 370.523 892.625C374.982 898.658 392.21 919.572 405.627 920.939C419.041 922.331 406.757 899.034 387.812 887.608C368.869 876.179 366.55 873.752 366.731 870.967V870.941C367.941 852.442 368.648 834.339 368.909 817.098C368.909 817.098 369.675 814.002 372.177 816.239C374.66 818.491 393.52 842.1 403.569 839.603C413.614 837.083 403.85 816.965 387.833 809.92C371.815 802.867 369.031 800.746 369.01 798.136C368.848 747.098 364.734 705.989 358.541 688.504C352.104 670.29 392.997 711.49 430.802 778.73C434.049 784.854 433.828 788.367 431.732 795.793C429.472 803.752 426.989 821.696 432.921 817.521C438.853 813.363 439.659 797.582 440.143 797.297C440.505 797.055 440.768 797.297 440.869 797.428C447.062 809.454 453.013 822.118 458.541 835.268C464.231 850.033 456.624 860.113 446.033 874.522C435.059 889.464 437.037 905.335 448.697 898.658C460.357 892.007 465.784 860.952 466.751 860.113C467.64 859.358 468.286 860.486 468.387 860.712C476.092 882.46 482.248 905.204 485.976 928.3C486.763 939.796 478.209 949.32 469.232 964.859C460.197 980.529 467.134 989.971 474.276 987.824C481.397 985.657 486.218 966.583 487.773 965.345C489.206 964.195 489.65 965.165 489.709 965.345C490.517 987.731 488.6 1010.15 483.091 1032.03C478.249 1051.24 473.168 1067.66 467.943 1081.65H375.365L345.932 1049.4Z" fill="#18A015"/>
<path fill-rule="evenodd" clip-rule="evenodd" d="M453.52 1081.65C441.374 904.071 399.734 750.262 399.535 749.467C398.947 747.346 396.932 746.128 394.993 746.746C393.058 747.366 391.946 749.598 392.513 751.719C392.715 752.494 434.131 905.399 446.275 1081.65H453.52Z" fill="#E0DAF0"/>
<path fill-rule="evenodd" clip-rule="evenodd" d="M529.873 837.456C600.078 791.902 619.468 886.702 605.245 929.652C594.694 961.435 557.292 1031.08 530.947 1081.65H433.003C445.711 975.381 478.209 870.988 529.873 837.456Z" fill="#1AD616"/>
<path fill-rule="evenodd" clip-rule="evenodd" d="M475.648 1081.65C511.377 957.412 566.088 854.627 566.37 854.082C567.176 852.553 569.215 851.778 570.888 852.375C572.584 852.975 573.289 854.699 572.483 856.246C572.199 856.774 517.974 958.63 482.407 1081.65H475.648Z" fill="#E0DAF0"/>
<path fill-rule="evenodd" clip-rule="evenodd" d="M229.045 783.104C250.693 693.456 326.987 742.548 359.751 819.176C378.25 862.432 410.285 976.553 446.336 1081.65H354.789L327.575 1064.92C264.248 935.175 220.391 818.908 229.045 783.104Z" fill="#14872D"/>
<path fill-rule="evenodd" clip-rule="evenodd" d="M377.08 1060.1C307.481 915.459 271.188 775.016 271.005 774.311C270.481 772.321 271.531 770.265 273.326 769.691C275.142 769.114 277.038 770.265 277.543 772.231C277.745 773.006 317.628 927.263 393.704 1078.29L377.08 1060.1Z" fill="#E0DAF0"/>
<path fill-rule="evenodd" clip-rule="evenodd" d="M1437.27 798.247H1524.34V827.155H1437.27V798.247Z" fill="#C1B6E1"/>
<path fill-rule="evenodd" clip-rule="evenodd" d="M1399.18 832.952H1486.28V861.858H1399.18V832.952Z" fill="#C1B6E1"/>
<path fill-rule="evenodd" clip-rule="evenodd" d="M1490.41 832.952H1545.5C1547.06 842.362 1548.03 852.025 1548.35 861.858H1490.41V832.952Z" fill="#C1B6E1"/>
<path fill-rule="evenodd" clip-rule="evenodd" d="M1437.27 867.624H1524.34V896.542H1437.27V867.624Z" fill="#C1B6E1"/>
<path fill-rule="evenodd" clip-rule="evenodd" d="M1528.5 867.624H1548.45C1548.47 868.156 1548.47 868.689 1548.47 869.217C1548.47 878.483 1547.9 887.608 1546.79 896.542H1528.5V867.624Z" fill="#C1B6E1"/>
<path fill-rule="evenodd" clip-rule="evenodd" d="M1490.41 902.329H1545.99C1544.49 912.213 1542.36 921.868 1539.61 931.24H1490.41V902.329Z" fill="#C1B6E1"/>
<path d="M1355.26 936.589C1355.83 935.971 1356.76 935.971 1357.32 936.589C1357.91 937.227 1357.91 938.249 1357.32 938.867L1352.66 943.994C1352.1 944.612 1351.17 944.612 1350.59 943.994C1350.02 943.351 1350.02 942.336 1350.59 941.716L1355.26 936.589ZM1360.61 947.554C1361.42 947.554 1362.08 948.282 1362.08 949.168C1362.08 950.048 1361.42 950.782 1360.61 950.782H1354.01C1353.21 950.782 1352.54 950.048 1352.54 949.168C1352.54 948.282 1353.21 947.554 1354.01 947.554H1360.61ZM1357.32 959.443C1357.91 960.087 1357.91 961.103 1357.32 961.721C1356.76 962.36 1355.83 962.36 1355.26 961.721L1350.59 956.614C1350.02 955.973 1350.02 954.954 1350.59 954.336C1351.17 953.719 1352.1 953.719 1352.66 954.336L1357.32 959.443ZM1347.34 965.325C1347.34 966.205 1346.67 966.934 1345.87 966.934C1345.06 966.934 1344.39 966.205 1344.39 965.325V958.092C1344.39 957.212 1345.06 956.483 1345.87 956.483C1346.67 956.483 1347.34 957.212 1347.34 958.092V965.325ZM1336.48 961.721C1335.9 962.36 1334.97 962.36 1334.4 961.721C1333.82 961.103 1333.82 960.087 1334.4 959.443L1339.07 954.336C1339.63 953.719 1340.56 953.719 1341.14 954.336C1341.71 954.954 1341.71 955.973 1341.14 956.614L1336.48 961.721ZM1331.12 950.782C1330.31 950.782 1329.65 950.048 1329.65 949.168C1329.65 948.282 1330.31 947.554 1331.12 947.554H1337.71C1338.52 947.554 1339.18 948.282 1339.18 949.168C1339.18 950.048 1338.52 950.782 1337.71 950.782H1331.12ZM1334.4 938.867C1333.82 938.249 1333.82 937.227 1334.4 936.589C1334.97 935.971 1335.9 935.971 1336.48 936.589L1341.14 941.716C1341.71 942.336 1341.71 943.351 1341.14 943.994C1340.56 944.612 1339.63 944.612 1339.07 943.994L1334.4 938.867ZM1344.39 933.011C1344.39 932.125 1345.06 931.397 1345.87 931.397C1346.67 931.397 1347.34 932.125 1347.34 933.011V940.233C1347.34 941.119 1346.67 941.847 1345.87 941.847C1345.06 941.847 1344.39 941.119 1344.39 940.233V933.011Z" fill="#7E6ABC"/>
<path fill-rule="evenodd" clip-rule="evenodd" d="M1501.47 785.778C1521.72 857.811 1529.28 896.959 1540.16 929.34C1545.56 910.306 1548.47 890.125 1548.47 869.217V765.866C1548.47 577.969 1476.49 697.016 1501.47 785.778Z" fill="#14872D"/>
<path fill-rule="evenodd" clip-rule="evenodd" d="M1250.46 1059.86C1234.67 1036.78 1218.55 1006.3 1208.92 968.99C1192.16 904.097 1260.97 975.999 1315.26 1059.86H1250.46Z" fill="#14872D"/>
<path fill-rule="evenodd" clip-rule="evenodd" d="M1345.08 1059.86C1328.13 1028.47 1311.31 987.16 1308.66 943.683C1303.1 852.2 1301.5 823.443 1285.59 808.633C1271.95 795.925 1436.44 798.643 1505.42 999.23C1484.96 1026.15 1458.31 1047.26 1427.93 1059.86H1345.08Z" fill="#18A015"/>
<path fill-rule="evenodd" clip-rule="evenodd" d="M1309.17 805.451C1371.44 867.518 1420.42 959.289 1456.34 1044.94C1454.62 1046.05 1452.88 1047.13 1451.15 1048.16C1414.35 960.218 1363.74 865.793 1299.14 804.391C1302.11 804.545 1305.48 804.898 1309.17 805.451Z" fill="#E0DAF0"/>
<path fill-rule="evenodd" clip-rule="evenodd" d="M1485.85 704.949C1499.59 742.015 1519.84 825.142 1543.79 914.62C1534.03 961.214 1509.53 1001.86 1476.06 1030.28C1418.05 939.526 1367.53 836.419 1348.65 754.661C1310.66 590.126 1428.84 550.913 1485.85 704.949Z" fill="#1AD616"/>
<path fill-rule="evenodd" clip-rule="evenodd" d="M1509.49 993.654C1429.16 839.752 1391.74 659.176 1391.58 658.401C1391.2 656.633 1392.21 654.862 1393.82 654.466C1395.43 654.049 1397.05 655.148 1397.43 656.918C1397.59 657.693 1434.49 835.711 1513.37 987.999C1512.09 989.899 1510.8 991.804 1509.49 993.654Z" fill="#E0DAF0"/>
<path fill-rule="evenodd" clip-rule="evenodd" d="M1431.89 1058.16C1428.92 1043.21 1424.3 1027.08 1417.24 1010.81C1390.46 949.232 1323.53 925.273 1304.49 934.643C1288.93 942.316 1257.61 989.793 1280.99 1059.86H1427.93C1429.26 1059.31 1430.58 1058.75 1431.89 1058.16Z" fill="#14872D"/>
<path fill-rule="evenodd" clip-rule="evenodd" d="M1393.09 1059.86C1396.5 1049.8 1403.54 1027.7 1404.46 1014.35C1404.55 1013.31 1403.84 1012.4 1402.89 1012.34C1401.96 1012.25 1401.14 1013.02 1401.06 1014.06C1400.22 1026.5 1393.76 1047.06 1390.29 1057.43C1382.46 1040.57 1372.91 1022.88 1361.32 1005C1367.43 979.16 1366.72 960.038 1366.72 959.971C1366.68 958.936 1365.9 958.141 1364.95 958.161C1364 958.208 1363.27 959.068 1363.3 960.107C1363.32 960.172 1363.94 977.325 1358.72 1001.04C1345.54 981.237 1329.83 961.232 1311.04 941.914C1309.67 940.501 1307.5 940.571 1306.2 942.095C1304.91 943.598 1305 945.961 1306.36 947.374C1315.52 956.79 1323.91 966.362 1331.64 975.999C1324.7 974.607 1314.11 973.142 1303.6 974.3C1302.67 974.406 1301.98 975.309 1302.06 976.352C1302.17 977.371 1302.99 978.12 1303.94 978.01C1316.59 976.638 1329.4 979.181 1335.29 980.62C1347.17 995.847 1357.38 1011.17 1366.14 1026.2C1353.91 1024.91 1323.9 1022.75 1294.76 1028.6C1293.84 1028.8 1293.23 1029.78 1293.39 1030.79C1293.57 1031.81 1294.46 1032.47 1295.39 1032.29C1326.52 1026.01 1358.75 1029.07 1368.46 1030.24C1374.19 1040.3 1379.27 1050.22 1383.77 1059.86H1393.09Z" fill="#E0DAF0"/>
<path d="M229.711 587.294C230.357 586.586 231.405 586.586 232.07 587.294C232.717 588.002 232.717 589.173 232.07 589.881L226.765 595.693C226.119 596.401 225.051 596.401 224.404 595.693C223.76 594.965 223.76 593.817 224.404 593.109L229.711 587.294ZM235.803 599.74C236.71 599.74 237.457 600.558 237.457 601.575C237.457 602.589 236.71 603.41 235.803 603.41H228.298C227.371 603.41 226.624 602.589 226.624 601.575C226.624 600.558 227.371 599.74 228.298 599.74H235.803ZM232.07 613.266C232.717 613.974 232.717 615.145 232.07 615.853C231.405 616.563 230.357 616.563 229.711 615.853L224.404 610.038C223.76 609.33 223.76 608.162 224.404 607.454C225.051 606.746 226.119 606.746 226.765 607.454L232.07 613.266ZM220.692 619.94C220.692 620.957 219.947 621.776 219.039 621.776C218.111 621.776 217.364 620.957 217.364 619.94V611.719C217.364 610.725 218.111 609.884 219.039 609.884C219.947 609.884 220.692 610.725 220.692 611.719V619.94ZM208.366 615.853C207.7 616.563 206.65 616.563 206.006 615.853C205.339 615.145 205.339 613.974 206.006 613.266L211.312 607.454C211.958 606.746 213.006 606.746 213.653 607.454C214.318 608.162 214.318 609.33 213.653 610.038L208.366 615.853ZM202.273 603.41C201.345 603.41 200.601 602.589 200.601 601.575C200.601 600.558 201.345 599.74 202.273 599.74H209.779C210.688 599.74 211.432 600.558 211.432 601.575C211.432 602.589 210.688 603.41 209.779 603.41H202.273ZM206.006 589.881C205.339 589.173 205.339 588.002 206.006 587.294C206.65 586.586 207.7 586.586 208.366 587.294L213.653 593.109C214.318 593.817 214.318 594.965 213.653 595.693C213.006 596.401 211.958 596.401 211.312 595.693L206.006 589.881ZM217.364 583.207C217.364 582.19 218.111 581.372 219.039 581.372C219.947 581.372 220.692 582.19 220.692 583.207V591.431C220.692 592.424 219.947 593.24 219.039 593.24C218.111 593.24 217.364 592.424 217.364 591.431V583.207Z" fill="#CDBAE2"/>
<path fill-rule="evenodd" clip-rule="evenodd" d="M160.113 1154.55C153.222 1154.55 147.561 1148.38 147.561 1140.8V1139.67C147.561 1132.09 153.222 1125.91 160.113 1125.91C167.028 1125.91 172.667 1132.09 172.667 1139.67V1140.8C172.667 1148.38 167.028 1154.55 160.113 1154.55ZM150.307 1061.73H1611.67C1622.03 1061.73 1630.51 1071 1630.51 1082.35C1630.51 1093.71 1622.03 1103 1611.67 1103H1548.15C1542.39 1103 1537.69 1108.15 1537.69 1114.45C1537.69 1120.74 1542.39 1125.91 1548.15 1125.91H1571.38C1578.58 1125.91 1584.47 1132.36 1584.47 1140.24C1584.47 1148.12 1578.58 1154.55 1571.38 1154.55H192.691C185.485 1154.55 179.608 1148.12 179.608 1140.24C179.608 1132.36 185.485 1125.91 192.691 1125.91H210.978C216.738 1125.91 221.439 1120.74 221.439 1114.45C221.439 1108.15 216.738 1103 210.978 1103H150.307C139.946 1103 131.488 1093.71 131.488 1082.35C131.488 1071 139.972 1061.73 150.307 1061.73Z" fill="#2C2757"/>
<defs>
<linearGradient id="paint0_linear" x1="210.157" y1="988.779" x2="1330.38" y2="236.912" gradientUnits="userSpaceOnUse">
<stop stop-color="#3059E1"/>
<stop offset="1" stop-color="#6D8CF2"/>
</linearGradient>
</defs>
</svg>
