<svg width="100" height="100" viewBox="0 0 100 100" fill="none" xmlns="http://www.w3.org/2000/svg">
<g clip-path="url(#clip0)">
<path d="M6.25002 6.80391C-1.60832 14.9664 1.64211e-05 23.6372 1.64211e-05 49.9789C1.64211e-05 71.8539 -3.81665 93.7831 16.1583 98.9456C22.3958 100.55 77.6625 100.55 83.8917 98.9373C92.2083 96.7914 98.975 90.0456 99.9 78.2831C100.029 76.6414 100.029 23.3456 99.8958 21.6706C98.9125 9.14141 91.2 1.92058 81.0375 0.458079C78.7083 0.120579 78.2417 0.0205791 66.2917 -0.000254273C23.9042 0.0205791 14.6125 -1.86692 6.25002 6.80391Z" fill="#6F10B9"/>
<path d="M49.9916 13.0791C34.8625 13.0791 20.4958 11.7333 15.0083 25.8166C12.7416 31.6333 13.0708 39.1874 13.0708 50.0041C13.0708 59.4958 12.7666 68.4166 15.0083 74.1874C20.4833 88.2791 34.9666 86.9291 49.9833 86.9291C64.4708 86.9291 79.4083 88.4374 84.9625 74.1874C87.2333 68.3124 86.9 60.8708 86.9 50.0041C86.9 35.5791 87.6958 26.2666 80.7 19.2749C73.6167 12.1916 64.0375 13.0791 49.975 13.0791H49.9916ZM46.6833 19.7333C78.2417 19.6833 82.2583 16.1749 80.0416 64.9124C79.2542 82.1499 66.1291 80.2583 49.9958 80.2583C20.5791 80.2583 19.7333 79.4166 19.7333 49.9874C19.7333 20.2166 22.0666 19.7499 46.6833 19.7249V19.7333ZM69.7 25.8624C67.2542 25.8624 65.2708 27.8458 65.2708 30.2916C65.2708 32.7374 67.2542 34.7208 69.7 34.7208C72.1458 34.7208 74.1292 32.7374 74.1292 30.2916C74.1292 27.8458 72.1458 25.8624 69.7 25.8624ZM49.9916 31.0416C39.5208 31.0416 31.0333 39.5333 31.0333 50.0041C31.0333 60.4749 39.5208 68.9624 49.9916 68.9624C60.4625 68.9624 68.9458 60.4749 68.9458 50.0041C68.9458 39.5333 60.4625 31.0416 49.9916 31.0416ZM49.9916 37.6958C66.2625 37.6958 66.2833 62.3124 49.9916 62.3124C33.725 62.3124 33.7 37.6958 49.9916 37.6958Z" fill="black"/>
</g>
<defs>
<clipPath id="clip0">
<rect width="100" height="100" fill="white"/>
</clipPath>
</defs>
</svg>
