<svg width="100" height="100" viewBox="0 0 100 100" fill="none" xmlns="http://www.w3.org/2000/svg">
<path d="M90.9542 0H9.04581C4.05 0 0 4.05 0 9.04581V90.9539C0 95.95 4.05 100 9.04581 100H90.9539C95.95 100 100 95.95 100 90.9539V9.04581C100 4.05 95.95 0 90.9542 0ZM30.9442 86.3466C30.9442 87.8005 29.7657 88.9791 28.3118 88.9791H17.106C15.6521 88.9791 14.4736 87.8005 14.4736 86.3466V39.3725C14.4736 37.9186 15.6521 36.7401 17.106 36.7401H28.3118C29.7657 36.7401 30.9442 37.9186 30.9442 39.3725V86.3466ZM22.7089 32.312C16.8296 32.312 12.0634 27.5458 12.0634 21.6665C12.0634 15.7872 16.8296 11.0209 22.7089 11.0209C28.5882 11.0209 33.3545 15.7872 33.3545 21.6665C33.3545 27.5458 28.5885 32.312 22.7089 32.312ZM89.5052 86.5586C89.5052 87.8953 88.4215 88.9791 87.0848 88.9791H75.0602C73.7236 88.9791 72.6398 87.8953 72.6398 86.5586V64.5251C72.6398 61.2382 73.6039 50.1217 64.05 50.1217C56.6393 50.1217 55.1361 57.7306 54.8343 61.1453V86.5586C54.8343 87.8953 53.7508 88.9791 52.4139 88.9791H40.784C39.4474 88.9791 38.3636 87.8953 38.3636 86.5586V39.1605C38.3636 37.8238 39.4474 36.7401 40.784 36.7401H52.4139C53.7505 36.7401 54.8343 37.8238 54.8343 39.1605V43.2586C57.5822 39.1348 61.666 35.9518 70.361 35.9518C89.6154 35.9518 89.5052 53.9403 89.5052 63.8241V86.5586Z" fill="#6F10B9"/>
</svg>
