<svg width="100" height="100" viewBox="0 0 100 100" fill="none" xmlns="http://www.w3.org/2000/svg">
<g clip-path="url(#clip0)">
<path d="M78.125 100H21.875C16.7083 100 12.5 95.7958 12.5 90.625V46.875C12.5 41.7042 16.7083 37.5 21.875 37.5H78.125C83.2917 37.5 87.5 41.7042 87.5 46.875V90.625C87.5 95.7958 83.2917 100 78.125 100ZM21.875 43.75C20.1542 43.75 18.75 45.15 18.75 46.875V90.625C18.75 92.35 20.1542 93.75 21.875 93.75H78.125C79.8458 93.75 81.25 92.35 81.25 90.625V46.875C81.25 45.15 79.8458 43.75 78.125 43.75H21.875Z" fill="#5C5C5C"/>
<path d="M71.875 43.75C70.15 43.75 68.75 42.35 68.75 40.625V25C68.75 14.6625 60.3375 6.25 50 6.25C39.6625 6.25 31.25 14.6625 31.25 25V40.625C31.25 42.35 29.85 43.75 28.125 43.75C26.4 43.75 25 42.35 25 40.625V25C25 11.2125 36.2125 0 50 0C63.7875 0 75 11.2125 75 25V40.625C75 42.35 73.6 43.75 71.875 43.75Z" fill="#5C5C5C"/>
<path d="M50 70.8334C45.4042 70.8334 41.6667 67.0959 41.6667 62.5001C41.6667 57.9042 45.4042 54.1667 50 54.1667C54.5958 54.1667 58.3333 57.9042 58.3333 62.5001C58.3333 67.0959 54.5958 70.8334 50 70.8334ZM50 60.4167C48.8542 60.4167 47.9167 61.3501 47.9167 62.5001C47.9167 63.6501 48.8542 64.5834 50 64.5834C51.1459 64.5834 52.0833 63.6501 52.0833 62.5001C52.0833 61.3501 51.1459 60.4167 50 60.4167Z" fill="#5C5C5C"/>
<path d="M50 83.3333C48.275 83.3333 46.875 81.9333 46.875 80.2083V68.75C46.875 67.025 48.275 65.625 50 65.625C51.725 65.625 53.125 67.025 53.125 68.75V80.2083C53.125 81.9333 51.725 83.3333 50 83.3333Z" fill="#5C5C5C"/>
</g>
<defs>
<clipPath id="clip0">
<rect width="100" height="100" fill="white"/>
</clipPath>
</defs>
</svg>
