<svg width="100" height="100" viewBox="0 0 100 100" fill="none" xmlns="http://www.w3.org/2000/svg">
<path d="M100 0H0V100H100V0Z" fill="#6F10B9"/>
<path d="M13.2484 74.1277C19.9036 78.3486 27.7982 80.7912 36.2608 80.7912C60.0356 80.7912 79.3082 61.5165 79.3082 37.7439C79.3082 37.1504 79.2957 36.5612 79.2728 35.9738C80.1328 35.2971 85.4513 31.0343 86.7549 28.2938C86.7549 28.2938 82.4359 30.0887 78.2088 30.5116C78.2005 30.5116 78.1902 30.5136 78.1819 30.5136C78.1819 30.5136 78.1902 30.5094 78.2047 30.4991C78.5942 30.2388 84.0395 26.532 84.7767 22.1154C84.7767 22.1154 81.7219 23.746 77.4446 25.1725C76.7365 25.4077 75.9953 25.639 75.231 25.8534C72.4739 22.9108 68.5549 21.0742 64.2048 21.0742C55.8606 21.0742 49.0991 27.8337 49.0991 36.1715C49.0991 37.3481 49.2345 38.4933 49.4906 39.5928C48.3245 39.545 30.5678 38.5494 18.4879 23.9206C18.4879 23.9206 11.2683 33.7767 22.7902 43.9116C22.7902 43.9116 19.2877 43.772 16.2659 41.9666C16.2659 41.9666 15.1561 53.907 28.2043 56.9599C28.2043 56.9599 25.6368 57.9324 21.5408 57.239C21.5408 57.239 23.8314 66.8868 35.4242 67.7884C35.4242 67.7884 26.2571 76.0696 13.2442 74.1266L13.2484 74.1277Z" fill="black"/>
</svg>
