<svg width="100" height="100" viewBox="0 0 100 100" fill="none" xmlns="http://www.w3.org/2000/svg">
<path d="M100 0H0V100H100V0Z" fill="#0077B7"/>
<path d="M13.2484 74.1274C19.9036 78.3483 27.7982 80.791 36.2608 80.791C60.0356 80.791 79.3082 61.5163 79.3082 37.7437C79.3082 37.1501 79.2957 36.561 79.2728 35.9736C80.1328 35.2968 85.4513 31.034 86.7549 28.2936C86.7549 28.2936 82.4359 30.0885 78.2088 30.5113C78.2005 30.5113 78.1902 30.5133 78.1819 30.5133C78.1819 30.5133 78.1902 30.5091 78.2047 30.4988C78.5942 30.2386 84.0395 26.5318 84.7767 22.1152C84.7767 22.1152 81.7219 23.7457 77.4446 25.1722C76.7365 25.4075 75.9953 25.6387 75.231 25.8531C72.4739 22.9106 68.5549 21.074 64.2048 21.074C55.8606 21.074 49.0991 27.8334 49.0991 36.1713C49.0991 37.3478 49.2345 38.493 49.4906 39.5926C48.3245 39.5447 30.5678 38.5492 18.4879 23.9204C18.4879 23.9204 11.2683 33.7764 22.7902 43.9114C22.7902 43.9114 19.2877 43.7718 16.2659 41.9663C16.2659 41.9663 15.1561 53.9067 28.2043 56.9596C28.2043 56.9596 25.6368 57.9321 21.5408 57.2387C21.5408 57.2387 23.8314 66.8865 35.4242 67.7882C35.4242 67.7882 26.2571 76.0694 13.2442 74.1263L13.2484 74.1274Z" fill="white"/>
</svg>
